# xmcd
#
# Track frame offsets: 
#        150
#        15740
#        26087
#        35846
#        48376
#        62413
#        74681
#        86504
#        98753
#        112643
#        123668
#        134855
#        147187
#        155335
#        165722
#        173338
#        184635
#        199328
#
# Disc length: 2837 seconds
#
# Revision: 0
# Processed by: cddbd v1.5.1PL0 Copyright (c) Steve Scherf et al.
# Submitted via: ExactAudioCopy v0.95a5
#
DISCID=f90b1312
DTITLE=Elmore James - Dust My Broom [CD 2)
DYEAR=2003
DGENRE=Blues
TTITLE0=I Believe
TTITLE1=Elmore's Contribution To Jazz
TTITLE2=Bobby's Rock
TTITLE3=I'm Worried
TTITLE4=Hand In Hand
TTITLE5=Cry For Me Baby
TTITLE6=I Can't Stop Loving You
TTITLE7=Got To Move
TTITLE8=Strange Angels
TTITLE9=Person To Person
TTITLE10=Rollin' And Tumblin'
TTITLE11=Early One Morning
TTITLE12=She Done Moved
TTITLE13=Done Somebody Wrong
TTITLE14=Mean Mistreatin' Mama
TTITLE15=So Unkind
TTITLE16=Pickin' The Blues
TTITLE17=Anna Lee
EXTD=
EXTT0=
EXTT1=
EXTT2=
EXTT3=
EXTT4=
EXTT5=
EXTT6=
EXTT7=
EXTT8=
EXTT9=
EXTT10=
EXTT11=
EXTT12=
EXTT13=
EXTT14=
EXTT15=
EXTT16=
EXTT17=
PLAYORDER=
